<svg width="13" height="13" viewBox="0 0 13 13" fill="none" xmlns="http://www.w3.org/2000/svg">
<path d="M5.78605 12.2739C5.62471 12.2739 5.49271 12.2225 5.39005 12.1199C5.28738 12.0172 5.23605 11.8852 5.23605 11.7239V7.69788H1.32005C1.15871 7.69788 1.01938 7.64655 0.902047 7.54388C0.79938 7.44121 0.748047 7.30921 0.748047 7.14788V5.54188C0.748047 5.38055 0.79938 5.24855 0.902047 5.14588C1.01938 5.04321 1.15871 4.99188 1.32005 4.99188H5.23605V1.07588C5.23605 0.914545 5.28738 0.782546 5.39005 0.67988C5.49271 0.577213 5.62471 0.525879 5.78605 0.525879H7.59005C7.73671 0.525879 7.86138 0.577213 7.96405 0.67988C8.08138 0.782546 8.14005 0.914545 8.14005 1.07588V4.99188H12.034C12.1954 4.99188 12.3274 5.04321 12.43 5.14588C12.5327 5.24855 12.584 5.38055 12.584 5.54188V7.14788C12.584 7.30921 12.5327 7.44121 12.43 7.54388C12.3274 7.64655 12.1954 7.69788 12.034 7.69788H8.14005V11.7239C8.14005 11.8852 8.08138 12.0172 7.96405 12.1199C7.86138 12.2225 7.73671 12.2739 7.59005 12.2739H5.78605Z" fill="#1CD6A9"/>
</svg>
