<svg width="80" height="50" viewBox="0 0 80 50" fill="none" xmlns="http://www.w3.org/2000/svg">
<g clip-path="url(#clip0_1_2)">
<mask id="mask0_1_2" style="mask-type:luminance" maskUnits="userSpaceOnUse" x="0" y="0" width="80" height="50">
<path d="M79.0019 0H0V50H79.0019V0Z" fill="white"/>
</mask>
<g mask="url(#mask0_1_2)">
<g clip-path="url(#clip1_1_2)">
<path d="M32 38C42.4934 38 51 29.4934 51 19C51 8.50659 42.4934 0 32 0C21.5066 0 13 8.50659 13 19C13 29.4934 21.5066 38 32 38Z" fill="#1CD6A9"/>
</g>
<path d="M0 35.0435C0.52356 34.4107 1.21202 34.3056 1.9953 34.3097C5.518 34.3344 9.04069 34.3138 12.5634 34.3159C12.8169 34.3159 13.0766 34.3303 13.324 34.386C13.9795 34.5323 14.3567 34.9425 14.3423 35.6289C14.3299 36.2803 13.8496 36.7502 13.1323 36.7708C12.079 36.8018 11.0236 36.777 9.97032 36.7791C9.40553 36.7791 8.83869 36.7997 8.2739 36.7832C7.89257 36.7729 7.70293 36.8883 7.71942 37.3068C7.74416 37.8963 7.74828 38.4899 7.71942 39.0794C7.69881 39.4938 7.88226 39.6236 8.26153 39.6236C10.3702 39.6216 12.4789 39.6174 14.5855 39.6339C15.0266 39.6381 15.0431 39.3021 15.1688 39.0423C16.4777 36.3029 18.607 34.7055 21.6535 34.3798C24.8196 34.0417 28.062 35.8495 29.3647 38.7744C29.6698 39.4587 30.0388 39.6442 30.7437 39.6422C38.7146 39.6195 46.6855 39.6216 54.6564 39.6422C55.281 39.6422 55.417 39.4587 55.4108 38.861C55.3799 36.0844 55.4026 33.3079 55.3984 30.5314C55.3984 29.8718 55.6582 29.3977 56.2704 29.1256C56.7403 28.9174 57.1237 29.1091 57.4741 29.3956C57.8245 29.6822 57.8658 30.0841 57.8637 30.5128C57.8555 33.2894 57.8575 36.0659 57.8699 38.8424C57.8699 39.1124 57.6844 39.5123 58.1626 39.5906C58.5584 39.6566 58.5913 39.2876 58.7026 39.0506C60.0919 36.1154 62.415 34.5612 65.6409 34.3282C68.5658 34.1159 71.6494 36.0061 72.9769 38.8939C73.2325 39.4484 73.5107 39.6855 74.1229 39.6319C74.7351 39.5783 75.3576 39.6092 75.9719 39.6339C76.3429 39.6484 76.5449 39.5762 76.5387 39.1392C76.5202 37.6221 76.5264 36.1051 76.5367 34.588C76.5387 34.2643 76.4336 34.118 76.0914 34.1386C75.7596 34.1572 75.4236 34.1386 75.0897 34.1283C72.8738 34.0623 71.3031 32.4607 71.2784 30.2387C71.2701 29.441 71.2701 28.6453 71.2784 27.8476C71.2887 26.8479 71.7298 26.4151 72.7522 26.4048C73.754 26.3945 74.7578 26.3903 75.7596 26.4089C76.277 26.4192 76.3264 26.2378 76.0976 25.8214C75.3411 24.4527 74.1971 23.6385 72.6326 23.6262C67.9021 23.5891 63.1715 23.6159 58.4409 23.6014C58.0286 23.6014 57.8122 23.6901 57.8555 24.1477C57.8823 24.428 57.8555 24.7125 57.8555 24.9949C57.8555 25.7019 57.4535 26.1059 56.8063 26.2131C56.1611 26.3202 55.7468 25.9492 55.4953 25.37C55.3758 25.0979 55.4005 24.8155 55.4005 24.5352C55.4005 17.4651 55.3902 10.3929 55.4129 3.32276C55.4149 2.66934 55.2954 2.45497 54.5842 2.45703C39.2856 2.48177 23.9869 2.48383 8.68821 2.45703C7.90494 2.45703 7.70705 2.64049 7.71118 3.42995C7.74416 10.4753 7.72767 17.5207 7.72354 24.5641C7.72354 24.8691 7.74622 25.201 7.63697 25.4731C7.45558 25.9265 7.07837 26.2069 6.56512 26.2254C6.05392 26.244 5.6829 26.0028 5.43761 25.5617C5.24179 25.2092 5.25828 24.8217 5.25828 24.4342C5.25828 17.2857 5.28301 10.1373 5.23973 2.9909C5.22942 1.33159 6.35693 -0.00411153 8.2471 1.09861e-05C23.7766 0.0432975 39.3062 0.0432975 54.8357 1.09861e-05C56.6187 -0.00411153 58.0925 1.15226 57.8637 3.00945C57.8142 3.41552 57.8493 3.83189 57.8637 4.24209C57.8988 5.37166 57.6184 5.2789 58.95 5.28302C61.6235 5.29127 64.299 5.27684 66.9724 5.28302C69.65 5.29127 71.6474 6.83515 72.2802 9.42822C72.4945 10.3043 72.3729 11.2174 72.3482 12.114C72.3399 12.3799 72.1668 12.6685 71.9504 12.7407C71.2722 12.9695 71.5134 13.4374 71.6144 13.8496C72.1668 16.0985 72.7398 18.3411 73.2964 20.5879C73.4036 21.0166 73.5746 21.2351 74.0776 21.3526C76.9139 22.0143 78.9772 24.6506 78.9916 27.592C79.0122 31.9372 78.9999 36.2823 78.9978 40.6275C78.9978 41.5612 78.5258 42.058 77.592 42.0827C76.5387 42.1095 75.4834 42.1177 74.4301 42.0868C73.9312 42.0724 73.754 42.1693 73.6983 42.7361C73.2819 47.0091 69.885 50.0577 65.6821 49.9959C61.8069 49.9382 58.5934 46.9432 58.1111 42.8619C58.0348 42.2105 57.8142 42.0827 57.2206 42.0827C48.4788 42.0951 39.737 42.093 30.9952 42.0745C30.3892 42.0745 30.1686 42.227 30.113 42.8722C29.7708 46.7803 26.5161 49.8763 22.6945 49.9918C18.6771 50.1113 15.2822 47.3327 14.6432 43.404C14.5017 42.5327 13.9857 42.0958 13.0952 42.093C11.4503 42.0889 9.80336 42.0951 8.15847 42.0848C6.30952 42.0724 5.26858 41.0088 5.2624 39.1433C5.2624 38.6796 5.20674 38.2096 5.27064 37.7561C5.38195 36.9728 5.09544 36.6987 4.31422 36.7605C3.57423 36.8203 2.82187 36.7399 2.07981 36.7832C1.28829 36.8286 0.560663 36.7605 0.00412252 36.1174V35.0373L0 35.0435ZM64.3443 21.163V21.1568C66.3211 21.1568 68.2978 21.1547 70.2746 21.1589C70.6394 21.1589 70.9342 21.1733 70.794 20.6312C70.1839 18.2834 69.5902 15.9315 69.0172 13.5755C68.9306 13.2189 68.8214 13.0478 68.4256 13.0499C65.1152 13.0663 61.8028 13.0746 58.4924 13.0643C57.9874 13.0643 57.8431 13.2395 57.8472 13.7321C57.8699 15.9913 57.8761 18.2504 57.8472 20.5096C57.839 21.0846 58.0637 21.1795 58.5707 21.1733C60.4959 21.1485 62.4212 21.163 64.3464 21.163H64.3443ZM65.9026 47.5368C68.8111 47.5244 71.2495 45.0942 71.2722 42.1878C71.2949 39.2629 68.8131 36.7873 65.8738 36.8038C62.9447 36.8203 60.5351 39.2217 60.5145 42.1466C60.4939 45.0736 62.9695 47.5471 65.9047 47.5347L65.9026 47.5368ZM22.3482 47.5368C25.269 47.5368 27.691 45.1251 27.7075 42.2023C27.724 39.2361 25.3185 36.81 22.3482 36.7997C19.4171 36.7873 16.9683 39.2505 16.9724 42.2105C16.9765 45.0942 19.4418 47.5389 22.3482 47.5389V47.5368ZM63.9609 10.5825C65.7315 10.5825 67.5022 10.5434 69.2687 10.6011C69.9819 10.6258 69.9695 10.3187 69.8479 9.82398C69.5346 8.56867 68.4256 7.76684 66.958 7.76272C64.5731 7.75653 62.1862 7.76478 59.8013 7.76478C57.8575 7.76478 57.8988 7.76478 57.841 9.67351C57.8184 10.4568 58.1049 10.6093 58.8036 10.5928C60.5207 10.5516 62.2398 10.5805 63.9589 10.5805L63.9609 10.5825ZM75.1227 28.8803C74.1676 28.8803 73.7107 29.3572 73.7519 30.3108C73.754 30.3624 73.7498 30.4139 73.754 30.4654C73.8179 31.1086 74.193 31.5002 74.797 31.6404C76.2316 31.9722 76.5346 31.7249 76.5326 30.2799C76.5298 29.3482 76.0592 28.8817 75.1206 28.8803H75.1227Z" fill="#1D4385"/>
<path d="M43.3524 13.1242C43.3978 13.5302 43.1875 13.8188 42.9278 14.0785C39.0238 17.9846 35.1198 21.8948 31.2075 25.7927C30.5747 26.4234 29.9563 26.4337 29.3173 25.803C27.1633 23.6758 25.0237 21.5341 22.8944 19.3801C22.3214 18.8009 22.3008 18.0691 22.7666 17.5909C23.3191 17.0241 24.0158 17.0385 24.663 17.6795C26.38 19.378 28.0929 21.0786 29.779 22.8059C30.1501 23.1852 30.3521 23.2037 30.7375 22.8121C34.153 19.3636 37.5892 15.9378 41.0212 12.5078C41.7859 11.7431 42.6021 11.7101 43.1216 12.4192C43.2762 12.6295 43.3916 12.8583 43.3504 13.1262L43.3524 13.1242Z" fill="#1D4385"/>
<path d="M42.1571 36.777C39.1765 36.777 36.198 36.777 33.2174 36.777C32.2589 36.777 31.6632 36.3112 31.6529 35.5671C31.6447 34.8332 32.2589 34.3344 33.2153 34.3324C39.1497 34.3262 45.082 34.3282 51.0164 34.3262C51.643 34.3262 52.1769 34.4828 52.4943 35.093C52.7108 35.5114 52.6139 35.8927 52.381 36.2535C52.08 36.7214 51.6039 36.7832 51.0947 36.7811C48.1141 36.775 45.1356 36.7791 42.155 36.777H42.1571Z" fill="#1D4385"/>
<path d="M11.7823 31.5042C9.23875 31.5042 6.6931 31.5042 4.1495 31.5042C3.19514 31.5042 2.62211 31.026 2.63447 30.2592C2.64684 29.5522 3.25697 29.0389 4.12889 29.0369C9.21814 29.0328 14.3074 29.0328 19.3946 29.041C20.5984 29.041 21.2806 29.9542 20.7901 30.8714C20.5118 31.3929 20.0459 31.5125 19.4915 31.5083C16.9211 31.498 14.3507 31.5042 11.7803 31.5042H11.7823Z" fill="#1D4385"/>
<path d="M65.851 39.6258C67.2898 39.6196 68.4523 40.7636 68.4585 42.19C68.4647 43.5174 67.2321 44.7377 65.8861 44.7377C64.5442 44.7377 63.3322 43.5277 63.3301 42.1797C63.326 40.7801 64.4617 39.6299 65.851 39.6258Z" fill="#1D4385"/>
<path d="M22.3461 39.6276C23.7992 39.6421 24.9082 40.7758 24.8917 42.229C24.8752 43.5935 23.6632 44.7726 22.3048 44.7396C20.9568 44.7087 19.7571 43.476 19.7736 42.1403C19.7922 40.751 20.9568 39.6132 22.3461 39.6256V39.6276Z" fill="#1D4385"/>
</g>
</g>
<defs>
<clipPath id="clip0_1_2">
<rect width="80" height="50" fill="white"/>
</clipPath>
<clipPath id="clip1_1_2">
<rect width="38" height="38" fill="white" transform="translate(13)"/>
</clipPath>
</defs>
</svg>
