<svg width="64" height="60" viewBox="0 0 64 60" fill="none" xmlns="http://www.w3.org/2000/svg">
<g clip-path="url(#clip0_1_15)">
<g clip-path="url(#clip1_1_15)">
<path d="M32 37C42.4934 37 51 28.4934 51 18C51 7.50659 42.4934 -1 32 -1C21.5066 -1 13 7.50659 13 18C13 28.4934 21.5066 37 32 37Z" fill="#1CD6A9"/>
</g>
<path d="M1 31.1568C1.62741 29.8753 2.70296 29.558 4.04862 29.598C6.18519 29.661 8.32661 29.6404 10.4644 29.6004C12.2206 29.5677 13.1375 30.8213 12.9946 32.1415C12.9365 32.6805 13.0043 33.2304 12.9801 33.7742C12.9655 34.0964 13.0794 34.1739 13.3895 34.1945C15.6326 34.3435 17.7135 35.0157 19.6635 36.1373C20.6919 36.7296 21.7735 37.2298 22.8054 37.8173C24.2746 38.653 25.894 38.7729 27.5207 38.9086C30.1902 39.1302 32.8585 39.3761 35.5268 39.6074C36.4279 39.6849 37.3351 39.7043 38.2277 39.8727C40.6708 40.3341 42.4767 42.352 42.6559 44.8507C42.6838 45.2371 42.84 45.397 43.1998 45.4152C43.8235 45.4467 44.4473 45.4806 45.0723 45.5121C45.3145 45.5242 45.4877 45.3691 45.6694 45.248C49.3563 42.7832 53.0929 40.3887 56.7096 37.8245C59.3186 35.975 62.4604 37.3703 62.9316 39.9151C62.9376 39.9466 62.9861 39.9696 63.014 39.9962V41.4497C62.693 42.3217 62.2545 43.0945 61.5375 43.734C57.6677 47.1848 53.8269 50.667 49.9704 54.131C48.9034 55.0891 47.674 55.7965 46.2714 56.0908C43.1416 56.7485 39.9525 57.0476 36.7949 57.5406C33.7959 58.0093 30.7861 58.4102 27.7811 58.8439C26.3773 59.0461 25.0062 59.1273 23.623 58.5822C20.3358 57.2862 17.017 56.0666 13.7104 54.8202C13.0188 54.5598 13.0152 54.5683 12.9825 55.2865C12.9292 56.4372 12.0559 57.3286 10.8641 57.3383C8.2612 57.3613 5.65831 57.3407 3.05542 57.3347C2.30205 57.3335 1.77033 56.9374 1.34641 56.3524C1.20712 56.1598 1.23497 55.8764 1 55.7407V31.1532V31.1568ZM2.81682 43.4966C2.81682 47.2514 2.82893 51.0049 2.8047 54.7597C2.80107 55.341 2.96943 55.5397 3.55686 55.5324C5.83757 55.507 8.11828 55.5227 10.399 55.5203C11.173 55.5203 11.1766 55.5167 11.1766 54.7391C11.1778 50.6621 11.1766 46.5852 11.1778 42.5071C11.1778 41.7416 11.5024 41.331 12.0911 41.3382C12.6749 41.3455 12.9898 41.7573 12.9898 42.518C12.9898 45.7071 12.9934 48.8962 12.9813 52.0853C12.9801 52.4487 13.0443 52.6546 13.4331 52.7987C16.7457 54.0317 20.0499 55.2877 23.3529 56.5474C24.4091 56.9495 25.4531 57.3747 26.6244 57.1857C27.3971 57.061 28.1735 56.9495 28.9487 56.8381C31.5722 56.4602 34.1968 56.0871 36.8203 55.708C39.2258 55.3604 41.6264 54.9728 44.0379 54.67C45.9674 54.4266 47.6812 53.8064 49.1383 52.4547C51.5789 50.1922 54.0813 47.9938 56.5546 45.7664C57.9039 44.5516 59.2762 43.3597 60.5855 42.1025C61.7071 41.0257 61.2286 39.2513 59.7461 38.8407C59.0812 38.6566 58.4925 38.8468 57.9244 39.2307C54.0607 41.8324 50.1872 44.4196 46.3162 47.0103C46.0122 47.2138 45.7094 47.4137 45.3158 47.3689C43.0011 47.1072 40.6877 47.2029 38.3719 47.3785C36.2002 47.5433 34.0249 47.6499 31.8507 47.7879C29.174 47.9587 26.4996 48.1683 23.818 48.2397C22.7436 48.2688 21.8655 47.8218 21.1267 47.0806C20.6386 46.5913 20.6046 46.0171 21.0043 45.6429C21.3944 45.2771 21.9067 45.3255 22.3924 45.7943C22.8502 46.2376 23.3735 46.4713 24.0239 46.4277C25.9352 46.2994 27.8465 46.1831 29.7578 46.0692C33.2993 45.8573 36.8421 45.6429 40.3849 45.4515C40.8064 45.4285 40.9009 45.2747 40.85 44.9028C40.7071 43.8345 40.2529 42.9516 39.3736 42.3012C38.5923 41.7234 37.6936 41.6108 36.7537 41.5357C33.6215 41.2874 30.4905 41.0064 27.3632 40.706C26.3833 40.6115 25.3853 40.6382 24.4272 40.3826C22.5607 39.8836 20.8978 38.9255 19.2432 37.9711C17.5148 36.9742 15.6968 36.2778 13.7129 36.0234C13.0297 35.9362 12.9886 35.9556 12.9861 36.6303C12.9849 37.0942 12.991 37.5593 12.9801 38.0232C12.9764 38.1806 12.9655 38.3514 12.9014 38.4907C12.71 38.9073 12.3587 39.0999 11.9154 39.0091C11.4152 38.9073 11.1778 38.5525 11.1766 38.045C11.1742 36.107 11.1742 34.1691 11.173 32.2324C11.173 31.5105 11.1136 31.4439 10.3808 31.4414C8.1207 31.4342 5.85937 31.433 3.59926 31.433C2.87253 31.433 2.81439 31.4972 2.81439 32.2336C2.81439 35.9883 2.81439 39.7419 2.81439 43.4966H2.81682Z" fill="#1D4385" stroke="#1D4385" stroke-width="0.7"/>
<path d="M31.9283 1C34.9151 1 37.902 1 40.8888 1C42.2466 1 42.8364 1.50265 43.0399 2.83014C43.4856 5.7213 44.9597 7.86877 47.6256 9.1466C49.0475 9.82851 49.4121 10.4814 49.1856 12.2255C48.563 17.0292 47.1072 21.5579 44.5782 25.7075C41.7342 30.3743 37.8499 33.911 32.9396 36.3237C32.3607 36.6084 31.8483 36.5805 31.2779 36.3056C24.5568 33.0547 19.9349 27.8634 17.1176 21.0043C15.8822 17.9957 15.0961 14.8696 14.7242 11.6393C14.6286 10.8132 15.1191 9.93389 15.9657 9.53419C17.4204 8.84743 18.6413 7.90632 19.5485 6.56188C20.3103 5.43303 20.6991 4.17943 20.8602 2.84588C20.9959 1.72309 21.6463 1.11991 22.7848 1.1187C25.8323 1.11506 28.8797 1.11749 31.9258 1.11749C31.9258 1.07873 31.9258 1.03997 31.9258 1.00121L31.9283 1ZM47.4318 11.4782C47.5408 11.1439 47.2355 10.9767 46.8528 10.7914C43.7497 9.28831 41.8905 6.83319 41.3273 3.42726C41.2437 2.9234 41.0632 2.79622 40.5606 2.80107C35.0314 2.85921 29.5022 2.88828 23.973 2.92582C23.5709 2.92825 23.0913 2.80955 22.7873 2.98638C22.459 3.17897 22.6068 3.72038 22.516 4.10312C21.7747 7.25711 19.9918 9.59232 17.0546 11.0046C16.6864 11.1814 16.5556 11.391 16.6004 11.7991C16.9444 14.872 17.7365 17.8298 18.9417 20.67C21.5409 26.7976 25.6942 31.5031 31.7139 34.4742C31.944 34.5881 32.1269 34.7068 32.4309 34.5517C34.9502 33.2678 37.2285 31.6557 39.2161 29.6451C42.2005 26.6268 44.2984 23.0598 45.707 19.0725C46.5597 16.6597 47.1084 14.1768 47.4306 11.477L47.4318 11.4782Z" fill="#1D4385" stroke="#1D4385" stroke-width="0.7"/>
<path d="M6.81876 47.5007C8.59561 47.4995 10.0345 48.8985 10.0563 50.6499C10.0781 52.3989 8.59561 53.9068 6.84178 53.9201C5.08552 53.9335 3.61753 52.4522 3.62601 50.6765C3.63449 48.9021 5.04192 47.5019 6.81755 47.5007H6.81876ZM6.81755 49.3175C6.03753 49.3224 5.46705 49.9062 5.46705 50.6983C5.46705 51.4796 6.04722 52.084 6.81513 52.0997C7.56245 52.1154 8.23588 51.4275 8.22134 50.6644C8.20681 49.9026 7.59151 49.3115 6.81755 49.3163V49.3175Z" fill="#1D4385" stroke="#1D4385" stroke-width="0.7"/>
<path d="M31.5755 22.8056C31.2812 22.8225 31.0656 22.6784 30.8706 22.4943C29.6558 21.3424 28.4373 20.1954 27.2309 19.0351C26.8022 18.6233 26.7719 18.0407 27.1207 17.6882C27.4938 17.3103 28.0122 17.3055 28.4736 17.7282C29.3057 18.4925 30.1342 19.2616 30.9251 20.067C31.3212 20.4704 31.5162 20.4086 31.8105 19.9568C33.4396 17.4593 35.0965 14.98 36.7462 12.4958C37.1725 11.8538 37.7467 11.7012 38.2033 12.1106C38.5812 12.4497 38.6793 12.8603 38.3886 13.3C36.3877 16.3256 34.3807 19.3488 32.3737 22.3708C32.1836 22.6566 31.9292 22.8359 31.5743 22.8056H31.5755Z" fill="#1D4385" stroke="#1D4385" stroke-width="0.7"/>
</g>
<defs>
<clipPath id="clip0_1_15">
<rect width="64" height="60" fill="white"/>
</clipPath>
<clipPath id="clip1_1_15">
<rect width="38" height="38" fill="white" transform="translate(13 -1)"/>
</clipPath>
</defs>
</svg>
