<svg width="44" height="44" viewBox="0 0 44 44" fill="none" xmlns="http://www.w3.org/2000/svg">
<path d="M18.334 22.0001H9.16732C8.68109 22.0001 8.21477 21.8069 7.87096 21.4631C7.52714 21.1193 7.33398 20.653 7.33398 20.1667V13.7501C7.33398 13.2639 7.52714 12.7975 7.87096 12.4537C8.21477 12.1099 8.68109 11.9167 9.16732 11.9167H16.5007C16.9869 11.9167 17.4532 12.1099 17.797 12.4537C18.1408 12.7975 18.334 13.2639 18.334 13.7501V22.0001ZM18.334 22.0001C18.334 26.5834 16.5007 29.3334 11.0007 32.0834M36.6673 22.0001H27.5007C27.0144 22.0001 26.5481 21.8069 26.2043 21.4631C25.8605 21.1193 25.6673 20.653 25.6673 20.1667V13.7501C25.6673 13.2639 25.8605 12.7975 26.2043 12.4537C26.5481 12.1099 27.0144 11.9167 27.5007 11.9167H34.834C35.3202 11.9167 35.7865 12.1099 36.1303 12.4537C36.4742 12.7975 36.6673 13.2639 36.6673 13.7501V22.0001ZM36.6673 22.0001C36.6673 26.5834 34.834 29.3334 29.334 32.0834" stroke="#828282" stroke-width="1.5" stroke-linecap="round"/>
</svg>
