<svg width="30" height="31" viewBox="0 0 30 31" fill="none" xmlns="http://www.w3.org/2000/svg">
<path d="M22.5387 21.2713L27.8925 26.6238L26.1238 28.3925L20.7713 23.0387C18.7797 24.6353 16.3025 25.5036 13.75 25.5C7.54 25.5 2.5 20.46 2.5 14.25C2.5 8.04 7.54 3 13.75 3C19.96 3 25 8.04 25 14.25C25.0036 16.8025 24.1353 19.2797 22.5387 21.2713ZM20.0312 20.3438C21.6176 18.7124 22.5036 16.5255 22.5 14.25C22.5 9.415 18.5837 5.5 13.75 5.5C8.915 5.5 5 9.415 5 14.25C5 19.0837 8.915 23 13.75 23C16.0255 23.0036 18.2124 22.1176 19.8438 20.5312L20.0312 20.3438Z" fill="#1D4385"/>
</svg>
