<svg width="18" height="21" viewBox="0 0 18 21" fill="none" xmlns="http://www.w3.org/2000/svg">
<path d="M2 20.5C1.45 20.5 0.979002 20.304 0.587002 19.912C0.195002 19.52 -0.000664969 19.0493 1.69779e-06 18.5V4.5C1.69779e-06 3.95 0.196002 3.479 0.588002 3.087C0.980002 2.695 1.45067 2.49933 2 2.5H3V0.5H5V2.5H13V0.5H15V2.5H16C16.55 2.5 17.021 2.696 17.413 3.088C17.805 3.48 18.0007 3.95067 18 4.5V18.5C18 19.05 17.804 19.521 17.412 19.913C17.02 20.305 16.5493 20.5007 16 20.5H2ZM2 18.5H16V8.5H2V18.5Z" fill="#828282"/>
</svg>
