<svg width="60" height="49" viewBox="0 0 60 49" fill="none" xmlns="http://www.w3.org/2000/svg">
<g clip-path="url(#clip0_120_975)">
<path d="M0 26.4764C0.341265 26.0662 0.779587 25.9833 1.29931 25.9864C4.84815 26.0036 8.39856 25.9911 11.9474 25.9942C12.619 25.9942 12.9524 26.2416 13.0088 26.741C13.0792 27.3656 12.6894 27.7522 11.9631 27.7554C10.1299 27.76 8.29681 27.7554 6.46368 27.7554C4.74797 27.7554 3.03068 27.7397 1.31497 27.7647C0.763932 27.7726 0.32248 27.6348 0 27.1793L0 26.4764Z" fill="#1CD6A9"/>
<path d="M38.0948 43.1421C28.9354 43.0826 21.6201 35.6937 21.6358 26.5954C21.6514 17.4846 29.2281 10.1208 38.2169 10.1583C47.1007 10.1975 55.0515 17.649 54.6023 27.4768C54.2062 36.1305 46.9645 43.1953 38.0948 43.1421ZM39.0152 13.3049H39.0184C39.0184 13.6367 39.0293 13.9686 39.0168 14.3005C38.9949 14.8781 38.638 15.2397 38.1135 15.2351C37.5844 15.2304 37.2729 14.8813 37.2651 14.2692C37.2572 13.6446 37.2463 13.0184 37.2651 12.3954C37.2776 12.015 37.1289 11.9195 36.7751 11.9868C36.3556 12.0666 35.9266 12.0979 35.5055 12.1746C32.982 12.6317 30.7356 13.6868 28.7475 15.3055C28.4078 15.581 28.4298 15.7532 28.7366 16.0272C29.1718 16.417 29.5772 16.8428 29.9795 17.2686C30.421 17.7335 30.4398 18.247 30.0515 18.6101C29.6696 18.9686 29.2046 18.9404 28.7569 18.5115C28.3202 18.0935 27.8834 17.6724 27.4733 17.2279C27.2134 16.9461 27.0616 16.9367 26.8001 17.2529C24.8512 19.6042 23.7851 22.3124 23.4438 25.3305C23.4016 25.7109 23.5425 25.8002 23.8931 25.7861C24.4786 25.761 25.0641 25.7736 25.6495 25.7798C26.3274 25.7877 26.7187 26.1227 26.7156 26.6768C26.7125 27.195 26.3195 27.5222 25.6746 27.53C25.0891 27.5362 24.5021 27.5582 23.9182 27.5237C23.4705 27.4987 23.3797 27.6897 23.4485 28.0763C23.5315 28.535 23.5847 28.9984 23.6724 29.4555C24.153 31.9539 25.2378 34.1659 26.8455 36.1305C27.0396 36.3684 27.1837 36.3825 27.4013 36.1524C27.8427 35.6843 28.3014 35.2304 28.7679 34.7873C29.2125 34.3647 29.6978 34.3537 30.0641 34.7263C30.4476 35.1161 30.4382 35.5669 30.0077 36.0193C29.5647 36.4858 29.1107 36.9445 28.6427 37.3875C28.4172 37.6004 28.4125 37.7351 28.6583 37.9386C31.0362 39.9157 33.7726 41.0178 36.8361 41.3481C37.1899 41.3856 37.2745 41.2588 37.2651 40.9317C37.2463 40.3071 37.2557 39.6825 37.2651 39.0578C37.2745 38.4395 37.5875 38.081 38.1026 38.0779C38.652 38.0748 39.0043 38.4489 39.0137 39.0641C39.0231 39.6887 39.0356 40.3149 39.009 40.9379C38.9949 41.2714 39.081 41.3841 39.4285 41.3465C42.4701 41.0162 45.1893 39.9235 47.5578 37.9683C47.8537 37.7241 47.8302 37.5722 47.5688 37.3312C47.1383 36.9351 46.7328 36.5109 46.3242 36.0913C45.8468 35.5998 45.8108 35.0879 46.2162 34.7106C46.6217 34.3334 47.0741 34.3741 47.5531 34.8421C47.9726 35.2507 48.4016 35.6515 48.7945 36.0851C49.0638 36.381 49.2156 36.3465 49.4661 36.0459C51.426 33.6774 52.4921 30.9489 52.8224 27.9088C52.8537 27.6145 52.7566 27.5237 52.4795 27.5284C51.8549 27.5378 51.2303 27.5362 50.6057 27.5315C49.9091 27.5253 49.5537 27.2169 49.56 26.6377C49.5663 26.0976 49.9326 25.7877 50.5869 25.7814C51.2115 25.7751 51.8361 25.7673 52.4607 25.7814C52.7832 25.7892 52.8678 25.6702 52.8114 25.3619C52.7284 24.922 52.6924 24.4743 52.6142 24.0344C52.1633 21.4827 51.0894 19.2238 49.4395 17.2279C49.1921 16.9289 49.0465 16.9664 48.807 17.2247C48.3969 17.6693 47.9601 18.0888 47.5202 18.5052C47.0537 18.9467 46.5497 18.9639 46.1818 18.5726C45.828 18.1969 45.8562 17.7163 46.2788 17.2764C46.6968 16.8396 47.1164 16.4013 47.5641 15.9959C47.8662 15.7219 47.8192 15.5622 47.5234 15.3196C45.3787 13.5616 42.9335 12.4861 40.1987 12.0744C39.0215 11.896 39.0184 11.9195 39.0168 13.1311C39.0168 13.189 39.0168 13.2485 39.0168 13.3064L39.0152 13.3049Z" fill="#1CD6A9"/>
<path d="M38.1075 0.454208C39.2988 0.454208 40.4901 0.44325 41.6798 0.457339C42.7881 0.471428 43.455 1.15083 43.4644 2.25133C43.4722 3.12954 43.4863 4.00931 43.455 4.88595C43.4409 5.2961 43.5474 5.49021 43.9716 5.60919C49.4052 7.13862 53.6272 10.3164 56.6501 15.0675C59.1187 18.9483 60.2286 23.225 59.9594 27.8008C59.6119 33.6978 57.2449 38.6978 52.9181 42.7476C52.4234 43.2094 51.888 43.2516 51.5326 42.8665C51.1632 42.4658 51.2133 41.9414 51.7048 41.4827C54.7856 38.6086 56.8629 35.1317 57.738 31.0146C59.0389 24.8938 57.7975 19.277 53.9606 14.3193C50.7484 10.1646 46.4779 7.63173 41.2994 6.82396C35.2537 5.88314 29.831 7.43761 25.105 11.3512C24.9093 11.5124 24.7246 11.6878 24.5258 11.8443C24.0921 12.1871 23.5928 12.1731 23.2687 11.8193C22.9228 11.4404 22.9509 10.916 23.3736 10.5247C25.2678 8.77137 27.4171 7.4157 29.8028 6.4326C30.6294 6.09134 31.47 5.78295 32.3404 5.57475C32.7271 5.48239 32.8257 5.29923 32.8147 4.92666C32.7897 4.02966 32.8069 3.1311 32.81 2.23254C32.8147 1.12578 33.4738 0.462035 34.5915 0.454208C35.7625 0.444815 36.935 0.452642 38.1059 0.452642L38.1075 0.454208ZM38.1404 2.21532C37.1056 2.21532 36.0708 2.23567 35.0377 2.20436C34.6369 2.19184 34.543 2.33116 34.5571 2.69748C34.5806 3.32052 34.5978 3.94826 34.5539 4.56974C34.5195 5.04876 34.7355 5.08163 35.105 5.01745C35.9503 4.86873 36.8035 4.80142 37.6629 4.79672C38.8338 4.79046 40.0017 4.80612 41.1569 5.02058C41.542 5.09259 41.733 4.99397 41.7095 4.54782C41.6767 3.92478 41.6861 3.2986 41.7095 2.67556C41.7221 2.32021 41.6031 2.19967 41.243 2.20593C40.2099 2.22628 39.1751 2.21219 38.1404 2.21376V2.21532Z" fill="#1CD6A9"/>
<path d="M38.1151 48.5506C28.807 48.106 22.0256 43.787 18.0509 35.2789C16.5293 32.0196 16.0487 28.5256 16.318 24.9564C16.6326 20.7861 18.0619 16.9993 20.5634 13.6336C20.7466 13.3862 20.9094 13.0904 21.2381 13.0152C21.6232 12.926 21.9864 12.9902 22.2228 13.3502C22.4639 13.7181 22.4357 14.0813 22.1696 14.4335C21.1552 15.7782 20.3067 17.2169 19.6367 18.7651C16.199 26.7237 18.4094 36.2212 24.9874 41.8537C28.0775 44.4993 31.6279 46.1132 35.6511 46.6079C40.1643 47.1621 44.4081 46.2666 48.3452 43.9717C48.4798 43.8934 48.6129 43.812 48.7491 43.7338C49.272 43.4379 49.7666 43.5146 50.0406 43.9341C50.3302 44.374 50.1909 44.9063 49.6727 45.2303C47.3684 46.669 44.8809 47.6458 42.2118 48.1467C40.8687 48.3988 39.5146 48.56 38.1167 48.5537L38.1151 48.5506Z" fill="#1CD6A9"/>
<path d="M8.8806 20.8456C10.3051 20.8456 11.7297 20.8409 13.1542 20.8471C13.8493 20.8503 14.2078 21.1696 14.1968 21.7426C14.1859 22.2701 13.8008 22.5973 13.1589 22.5989C10.3098 22.6036 7.45918 22.602 4.61009 22.5989C3.94478 22.5989 3.52524 22.2466 3.52055 21.7113C3.51585 21.1868 3.93539 20.8456 4.60539 20.844C6.02994 20.8393 7.45449 20.844 8.87903 20.844L8.8806 20.8456Z" fill="#1CD6A9"/>
<path d="M8.84807 32.4752C7.44387 32.4752 6.03811 32.4783 4.63392 32.4752C3.96704 32.4736 3.53968 32.1417 3.52246 31.6283C3.50524 31.0835 3.94669 30.7109 4.64801 30.7109C7.47675 30.7078 10.3055 30.7062 13.1342 30.7156C13.87 30.7172 14.266 31.1085 14.1831 31.7285C14.1111 32.2717 13.7479 32.4752 13.2375 32.4752C11.7739 32.4752 10.3118 32.4752 8.84807 32.4752Z" fill="#1CD6A9"/>
<path d="M10.8297 37.6269C9.67753 37.6269 8.52537 37.6316 7.37478 37.6254C6.7126 37.6222 6.34629 37.3201 6.33063 36.7894C6.31341 36.2227 6.69695 35.8596 7.36069 35.858C9.6838 35.8517 12.0069 35.8533 14.33 35.8611C15 35.8643 15.3835 36.2149 15.3773 36.7753C15.371 37.3201 15.0204 37.6175 14.3457 37.6222C13.1747 37.6301 12.0038 37.6238 10.8313 37.6238V37.6269H10.8297Z" fill="#1CD6A9"/>
<path d="M10.8625 15.6968C12.0335 15.6968 13.2044 15.6937 14.3754 15.6968C15.0109 15.7 15.3835 16.035 15.3804 16.5797C15.3773 17.1104 14.989 17.4438 14.3519 17.4454C12.0288 17.4501 9.70725 17.4501 7.38415 17.4454C6.70788 17.4454 6.32591 17.112 6.33061 16.5484C6.33531 15.9849 6.69692 15.6953 7.40919 15.6937C8.56135 15.6921 9.71195 15.6937 10.8641 15.6937L10.8625 15.6968Z" fill="#1CD6A9"/>
<path d="M39.1642 24.1391C39.6433 23.6366 40.1129 23.1216 40.6076 22.6348C41.0819 22.1667 41.5453 22.1495 41.9398 22.5424C42.3123 22.9134 42.2873 23.4253 41.8396 23.884C40.8173 24.9313 39.7873 25.9707 38.7478 26.9992C38.5068 27.2371 38.2093 27.3796 37.8446 27.2137C37.4924 27.054 37.2716 26.8082 37.2701 26.4122C37.2654 24.2456 37.2607 22.0806 37.2701 19.914C37.2732 19.374 37.6552 19.0233 38.1577 19.039C38.6414 19.0546 39.0061 19.4272 39.0124 19.9688C39.0249 21.2368 39.0124 22.5048 39.0124 23.7728C39.0124 23.8668 39.0202 23.9607 39.0249 24.0546C39.0719 24.0828 39.1173 24.111 39.1642 24.1407V24.1391Z" fill="#1CD6A9"/>
</g>
<defs>
<clipPath id="clip0_120_975">
<rect width="60" height="48.1011" fill="white" transform="translate(0 0.449463)"/>
</clipPath>
</defs>
</svg>
