<svg width="60" height="61" viewBox="0 0 60 61" fill="none" xmlns="http://www.w3.org/2000/svg">
<g clip-path="url(#clip0_120_876)">
<path d="M45.5703 60.492C43.2897 60.45 41.2837 59.6198 39.6249 57.961C36.5626 54.8987 33.4938 51.8412 30.446 48.7643C30.1035 48.4186 29.9307 48.3863 29.5673 48.7546C26.5502 51.8056 23.5137 54.8357 20.4723 57.8625C16.9206 61.3965 11.7327 61.3755 8.18419 57.8253C6.33322 55.9727 4.48224 54.1218 2.62965 52.2692C-0.849404 48.7901 -0.868786 43.5441 2.59573 40.065C5.62255 37.0269 8.6542 33.9936 11.7004 30.9749C12.0557 30.6228 12.1252 30.4403 11.723 30.043C8.65582 27.0145 5.61447 23.9586 2.56989 20.906C-0.852635 17.4754 -0.855865 12.2293 2.56343 8.79712C4.49678 6.8557 6.42851 4.91428 8.3764 2.989C11.7262 -0.322076 16.9448 -0.336612 20.3076 2.97931C23.4345 6.06266 26.5308 9.17669 29.6238 12.2923C29.9243 12.5944 30.0745 12.596 30.37 12.2988C33.4211 9.22837 36.4883 6.1741 39.549 3.11337C41.2837 1.37869 43.3672 0.479044 45.8287 0.529114C48.0318 0.574339 49.9539 1.36254 51.5303 2.90017C53.5476 4.86905 55.5423 6.86055 57.5144 8.87304C60.8433 12.2697 60.8239 17.4786 57.4773 20.8543C54.4279 23.9296 51.3687 26.9951 48.287 30.0397C47.8913 30.4306 47.9446 30.6147 48.2983 30.9668C51.2864 33.9323 54.2421 36.93 57.2382 39.8874C59.0182 41.643 59.9905 43.7234 59.9792 46.2301C59.9679 48.3686 59.2653 50.2809 57.7874 51.8234C55.699 54.0039 53.5654 56.1456 51.3897 58.2404C49.802 59.7684 47.8364 60.4677 45.5703 60.4936V60.492ZM14.3266 58.5586C16.2551 58.5215 17.8703 57.7591 19.2432 56.3814C24.5845 51.0158 29.942 45.6648 35.2963 40.3105C42.1446 33.4622 48.9961 26.6156 55.846 19.7689C58.8017 16.8148 58.8001 12.8689 55.8508 9.9342C54.0515 8.1446 52.2635 6.34208 50.461 4.55571C47.6167 1.73725 43.6774 1.72756 40.8476 4.55571C28.5611 16.8309 16.281 29.111 4.00577 41.3975C1.25677 44.1498 1.25192 48.1182 3.9767 50.8785C5.85836 52.786 7.76425 54.6709 9.66045 56.5655C10.9429 57.8479 12.4983 58.494 14.3266 58.5586ZM14.2976 2.4447C12.6679 2.50446 11.1399 3.00516 9.92049 4.19876C7.81916 6.25647 5.72269 8.31904 3.6892 10.4414C1.38598 12.8479 1.31007 16.7453 3.61329 19.1552C6.758 22.4436 10.0303 25.611 13.2348 28.8445C13.5126 29.1239 13.6434 29.0189 13.855 28.8074C18.6763 23.9796 23.4991 19.1535 28.3317 14.3355C28.5821 14.0868 28.5691 13.9592 28.3236 13.7153C25.2564 10.661 22.1973 7.59706 19.1447 4.52825C17.8202 3.19736 16.2325 2.49477 14.2976 2.44631V2.4447ZM45.6252 58.5635C47.2582 58.5199 48.7716 58.0515 49.9603 56.9031C52.1473 54.7921 54.3213 52.6649 56.4 50.4505C58.6515 48.0504 58.6596 44.2079 56.3806 41.8336C53.231 38.5516 49.9668 35.3778 46.7639 32.1475C46.4829 31.8649 46.3521 31.9925 46.1421 32.2024C41.3451 37.0043 36.5464 41.8029 31.7381 46.5935C31.4409 46.8891 31.436 47.0619 31.7332 47.3591C34.8327 50.4408 37.9161 53.5355 41.0091 56.6237C42.2786 57.8916 43.834 58.4924 45.6236 58.5667L45.6252 58.5635Z" fill="#1CD6A9"/>
<path d="M29.3089 43.9204C28.9293 43.9608 28.6967 43.7233 28.4706 43.4972C24.6346 39.6693 20.8002 35.8397 16.9706 32.0053C16.4053 31.44 16.415 31.0007 16.9706 30.4451C21.2815 26.131 25.594 21.8185 29.9081 17.506C30.5267 16.8874 30.9256 16.8874 31.5523 17.5141C35.3593 21.3146 39.163 25.1183 42.965 28.9252C43.6143 29.5761 43.616 29.9799 42.9796 30.6163C38.7075 34.89 34.4338 39.1621 30.1584 43.4342C29.9178 43.6749 29.6917 43.9511 29.3089 43.9204ZM41.3063 29.7764C41.1577 29.6197 41.0382 29.4889 40.9122 29.3629C37.6657 26.1148 34.4128 22.8716 31.1792 19.6106C30.8352 19.2633 30.6559 19.2246 30.2876 19.5944C26.555 23.3513 22.8062 27.092 19.0461 30.823C18.7118 31.1558 18.7683 31.3334 19.0736 31.6371C22.3588 34.9046 25.6344 38.1817 28.8954 41.4718C29.2039 41.7835 29.3767 41.7593 29.661 41.4702C31.0742 40.0359 32.502 38.6178 33.9266 37.1949C36.2185 34.9029 38.5137 32.6126 40.804 30.3207C40.9719 30.1528 41.1254 29.9719 41.3047 29.7764H41.3063Z" fill="#1CD6A9"/>
<path d="M49.361 12.3101C48.7424 12.3182 48.2126 11.7981 48.2013 11.1714C48.1916 10.5544 48.7117 9.99556 49.3142 9.97617C49.9198 9.95679 50.5223 10.5447 50.5223 11.1569C50.5223 11.7432 49.9602 12.302 49.3594 12.3117L49.361 12.3101Z" fill="#1CD6A9"/>
<path d="M43.6529 24.8147C43.6626 24.1524 44.1472 23.6937 44.8191 23.7131C45.4845 23.7309 45.9642 24.2219 45.9529 24.8728C45.9416 25.4833 45.3844 26.0147 44.7658 26.0018C44.1343 25.9889 43.6449 25.4672 43.6529 24.8163V24.8147Z" fill="#1CD6A9"/>
<path d="M24.3163 44.1546C24.9737 44.1449 25.4841 44.6246 25.497 45.2609C25.5083 45.8828 24.9931 46.4303 24.3745 46.4497C23.7462 46.4691 23.2213 45.9619 23.2116 45.3239C23.2019 44.6536 23.6638 44.1643 24.3163 44.1562V44.1546Z" fill="#1CD6A9"/>
<path d="M10.6472 51.0158C10.0383 51.0126 9.49234 50.4586 9.49072 49.8432C9.49072 49.2262 10.0383 48.6867 10.6601 48.6964C11.2916 48.7045 11.8182 49.2343 11.8182 49.8577C11.8182 50.4602 11.2529 51.019 10.6472 51.0158Z" fill="#1CD6A9"/>
<path d="M49.3595 19.1389C49.9975 19.1486 50.5176 19.6542 50.5257 20.2712C50.5321 20.8962 49.9604 21.4454 49.3192 21.426C48.6812 21.4082 48.1902 20.8946 48.1998 20.2582C48.2112 19.6251 48.7232 19.1292 49.3595 19.1389Z" fill="#1CD6A9"/>
<path d="M53.9381 16.8454C53.3001 16.8567 52.772 16.3673 52.7445 15.739C52.7187 15.1527 53.2807 14.5696 53.8848 14.5535C54.5018 14.5373 55.0364 15.0574 55.051 15.6873C55.0655 16.3576 54.6068 16.8341 53.9365 16.8454H53.9381Z" fill="#1CD6A9"/>
<path d="M18.6392 49.8319C18.6424 49.2149 19.1867 48.6674 19.7827 48.6803C20.411 48.6932 20.923 49.2084 20.9295 49.8351C20.936 50.4925 20.39 51.04 19.7504 51.019C19.1302 50.998 18.6343 50.4699 18.6392 49.8335V49.8319Z" fill="#1CD6A9"/>
<path d="M16.3455 36.1724C16.3391 36.833 15.8577 37.2998 15.1939 37.2917C14.5608 37.2836 14.0391 36.7571 14.052 36.1353C14.0649 35.5425 14.6496 34.9756 15.2359 34.9885C15.861 35.0014 16.3536 35.5263 16.3455 36.174V36.1724Z" fill="#1CD6A9"/>
<path d="M43.6563 6.56812C43.6628 5.91075 44.1505 5.43912 44.8095 5.45204C45.4508 5.46496 45.9644 5.98504 45.9515 6.6085C45.9385 7.20449 45.3652 7.76172 44.7708 7.75203C44.1506 7.74234 43.6499 7.21095 43.6563 6.56812Z" fill="#1CD6A9"/>
<path d="M16.3441 54.4303C16.3392 55.0957 15.8595 55.5657 15.1973 55.5544C14.5722 55.5447 14.0376 55.0037 14.0505 54.3931C14.0618 53.7939 14.6384 53.2367 15.2328 53.248C15.8676 53.2609 16.3489 53.7729 16.3441 54.4303Z" fill="#1CD6A9"/>
<path d="M6.1054 44.1578C6.74823 44.1643 7.25862 44.6747 7.24731 45.2997C7.23601 45.9022 6.67555 46.4497 6.07148 46.4449C5.4561 46.4416 4.94087 45.9038 4.94733 45.2707C4.95379 44.6165 5.43995 44.1497 6.10378 44.1562L6.1054 44.1578Z" fill="#1CD6A9"/>
<path d="M41.332 11.1649C41.3013 11.7868 40.7392 12.3181 40.1432 12.2875C39.5214 12.2552 39.0352 11.6995 39.0756 11.0664C39.1111 10.4962 39.691 9.96001 40.2466 9.98262C40.7699 10.0052 41.3578 10.6432 41.332 11.1649Z" fill="#1CD6A9"/>
<path d="M40.2546 21.4261C39.5843 21.4406 39.0513 20.8559 39.1014 20.163C39.1482 19.5266 39.7232 19.0728 40.3645 19.1648C40.5034 19.1842 40.6778 19.1907 40.6568 19.378C40.6407 19.5266 40.4791 19.5153 40.3612 19.5121C40.0608 19.5056 39.7798 19.5573 39.6829 19.8868C39.5989 20.1711 39.468 20.5038 39.7232 20.7428C39.9897 20.9932 40.1884 20.6637 40.4081 20.5619C40.5163 20.5119 40.6148 20.4392 40.7182 20.3762C40.8732 20.2809 41.0154 20.2728 41.1478 20.423C41.2722 20.5636 41.2867 20.7154 41.1947 20.8672C40.9815 21.2177 40.6697 21.4115 40.2546 21.4261Z" fill="#1CD6A9"/>
<path d="M20.6081 40.9792C20.4482 40.8774 20.4675 40.7191 20.4336 40.5915C20.3303 40.212 20.0638 40.086 19.7084 40.107C19.3547 40.128 19.169 40.3428 19.1221 40.6804C19.0963 40.8726 19.1415 41.1439 18.833 41.0793C18.5713 41.0244 18.6392 40.7563 18.6505 40.5689C18.6796 40.0731 19.1173 39.6386 19.6212 39.5805C20.1526 39.5191 20.6323 39.8243 20.8003 40.3073C20.8988 40.5899 20.8406 40.8031 20.6081 40.9792Z" fill="#1CD6A9"/>
<path d="M24.3645 16.8551C23.712 16.8648 23.221 16.3915 23.2097 15.7439C23.1984 15.0897 23.6668 14.5809 24.3015 14.5567C24.9427 14.5341 25.5113 15.0768 25.5097 15.7099C25.5064 16.3447 25.0057 16.8454 24.3645 16.8551Z" fill="#1CD6A9"/>
<path d="M6.10532 16.847C5.44634 16.8567 4.95856 16.3851 4.94887 15.7309C4.93918 15.0881 5.44149 14.5615 6.06817 14.5551C6.67386 14.5502 7.23755 15.0929 7.24724 15.6938C7.25855 16.314 6.74008 16.8373 6.10371 16.847H6.10532Z" fill="#1CD6A9"/>
<path d="M15.1924 5.45047C15.8627 5.43916 16.3343 5.89625 16.3473 6.56493C16.3586 7.19807 15.853 7.73915 15.236 7.75369C14.6546 7.76822 14.0667 7.19807 14.0521 6.60692C14.036 5.98347 14.5528 5.46016 15.1924 5.44885V5.45047Z" fill="#1CD6A9"/>
<path d="M11.7924 11.1391C11.8085 11.7609 11.29 12.2923 10.6569 12.302C10.0367 12.3117 9.50206 11.7884 9.48752 11.1617C9.4746 10.5657 10.0351 9.98583 10.6278 9.98099C11.2271 9.97614 11.7746 10.5221 11.7907 11.1391H11.7924Z" fill="#1CD6A9"/>
<path d="M19.8197 21.4212C19.1768 21.439 18.66 20.9561 18.639 20.3181C18.6164 19.6575 19.0783 19.1632 19.7357 19.1471C20.4108 19.1293 20.9147 19.6219 20.9212 20.3051C20.9277 20.9189 20.448 21.4051 19.8197 21.4212ZM19.8665 20.3552C19.8213 20.1856 19.8584 19.9014 19.6048 19.9062C19.3206 19.911 19.2334 20.1792 19.2511 20.4311C19.2657 20.6298 19.3367 20.8527 19.5984 20.8252C19.86 20.7994 19.8633 20.5733 19.8665 20.3552Z" fill="#1CD6A9"/>
<path d="M15.2131 23.7114C15.8785 23.7147 16.3469 24.1815 16.3518 24.8469C16.3566 25.5075 15.8899 25.9791 15.2196 25.992C14.6171 26.0034 14.055 25.451 14.0566 24.8469C14.0566 24.2057 14.5654 23.7082 15.2147 23.7114H15.2131ZM15.3052 25.2959C15.2034 25.0843 15.1436 24.7888 14.819 24.7274C14.6316 24.6918 14.5218 24.8324 14.5089 25.0084C14.4847 25.3105 14.6478 25.501 14.9337 25.556C15.0903 25.5866 15.2535 25.543 15.3052 25.2943V25.2959Z" fill="#1CD6A9"/>
<path d="M11.3723 20.528C11.3206 20.2663 11.4111 19.9304 11.0671 19.8092C10.8329 19.7269 10.6213 19.8302 10.505 20.0451C10.3564 20.3212 10.3839 20.5829 10.6391 20.8026C10.7553 20.9027 10.9508 21.019 10.8506 21.1854C10.7424 21.3679 10.5034 21.3759 10.3063 21.3356C9.86216 21.2435 9.63119 20.9318 9.53428 20.507C9.41637 19.9918 9.61827 19.5977 10.0334 19.3166C10.3919 19.0727 10.8086 19.0259 11.1591 19.2972C11.5435 19.596 11.8827 19.9675 11.6954 20.528C11.6437 20.683 11.6485 20.9657 11.424 20.9302C11.1721 20.8898 11.3966 20.6669 11.3739 20.528H11.3723Z" fill="#1CD6A9"/>
<path d="M18.6792 11.244C18.5855 10.6771 18.8762 10.3266 19.3349 10.0924C19.7613 9.87435 20.1522 10.0084 20.5027 10.2862C20.6093 10.3702 20.7191 10.4865 20.64 10.6464C20.5899 10.7465 20.4688 10.7885 20.3848 10.7272C19.6353 10.1812 19.2235 10.6997 18.8051 11.2133C18.7858 11.2359 18.7325 11.2327 18.6808 11.244H18.6792Z" fill="#1CD6A9"/>
<path d="M50.5288 49.8431C50.5434 50.4198 49.9748 51.0012 49.3788 51.019C48.7699 51.0368 48.2191 50.5102 48.1965 49.8884C48.1739 49.2682 48.6811 48.7158 49.3013 48.6835C49.9215 48.6512 50.5127 49.21 50.5288 49.8431Z" fill="#1CD6A9"/>
<path d="M41.366 40.7272C41.3612 41.3668 40.8588 41.8643 40.2192 41.8627C39.5845 41.8594 39.0725 41.3458 39.0757 40.7143C39.0789 40.0892 39.6055 39.5724 40.2338 39.574C40.8669 39.5756 41.3708 40.0892 41.366 40.7272Z" fill="#1CD6A9"/>
<path d="M53.9046 44.1546C54.5765 44.1546 55.0465 44.6133 55.0562 45.2803C55.0643 45.9119 54.5458 46.4497 53.9256 46.4529C53.3393 46.4578 52.7546 45.8844 52.7481 45.2965C52.7401 44.6779 53.2698 44.1546 53.9062 44.153L53.9046 44.1546Z" fill="#1CD6A9"/>
<path d="M44.7497 37.2901C44.1069 37.2788 43.645 36.7797 43.6595 36.1127C43.6724 35.5086 44.1764 35.0014 44.7756 34.9917C45.4071 34.9804 45.974 35.5603 45.953 36.1966C45.9337 36.8249 45.4087 37.3014 44.7514 37.2901H44.7497Z" fill="#1CD6A9"/>
<path d="M41.366 49.8803C41.3547 50.5069 40.8087 51.0383 40.1982 51.0157C39.5796 50.9931 39.0676 50.452 39.0708 49.827C39.074 49.2213 39.6394 48.6818 40.2499 48.7012C40.883 48.7206 41.3756 49.2423 41.366 49.8819V49.8803Z" fill="#1CD6A9"/>
<path d="M43.6564 54.4416C43.6467 53.7923 44.1442 53.2528 44.7612 53.2447C45.3555 53.2366 45.9338 53.7906 45.9531 54.385C45.9741 54.9988 45.4492 55.5415 44.8193 55.5592C44.1684 55.577 43.6661 55.0973 43.6564 54.4416Z" fill="#1CD6A9"/>
<path d="M35.6546 44.1578C36.2845 44.1595 36.7787 44.6666 36.7868 45.3208C36.7949 45.941 36.249 46.4627 35.6142 46.4433C35.0214 46.4239 34.4788 45.8376 34.4965 45.2368C34.5159 44.6456 35.0408 44.1562 35.6546 44.1578Z" fill="#1CD6A9"/>
<path d="M49.3643 39.5772C49.9878 39.5869 50.5289 40.1199 50.5256 40.7255C50.5224 41.3296 49.9749 41.8594 49.3498 41.861C48.7183 41.8626 48.1982 41.3425 48.2046 40.7142C48.2095 40.0892 48.7409 39.5675 49.3627 39.5772H49.3643Z" fill="#1CD6A9"/>
</g>
<defs>
<clipPath id="clip0_120_876">
<rect width="59.9984" height="60" fill="white" transform="translate(0 0.5)"/>
</clipPath>
</defs>
</svg>
