<svg width="61" height="61" viewBox="0 0 61 61" fill="none" xmlns="http://www.w3.org/2000/svg">
<g clip-path="url(#clip0_120_913)">
<path d="M45.4804 60.5H14.5353C14.1454 60.2823 13.7006 60.3496 13.2841 60.2807C7.03589 59.2425 1.86037 54.3911 0.438471 48.251C0.244291 47.4148 0.223933 46.5566 0 45.7298C0 35.4931 0 25.2563 0 15.0196C0.0391492 14.8521 0.0955239 14.6845 0.115882 14.5138C0.285006 13.0763 0.674931 11.6982 1.19953 10.3515C3.41381 4.67172 9.45531 0.507812 15.5485 0.503114C25.1212 0.495284 34.6924 0.503114 44.2652 0.503114C45.0669 0.503114 45.8578 0.575148 46.6501 0.708255C54.4111 2.01271 60.0125 8.60855 60.0157 16.465C60.0188 25.8608 60.0141 35.2582 60.0204 44.654C60.0204 45.6139 59.9593 46.5738 59.751 47.5009C58.3354 53.8008 54.5536 57.9506 48.3837 59.908C47.4363 60.2087 46.4403 60.2635 45.4819 60.5015L45.4804 60.5ZM29.9444 58.7414C34.5343 58.7414 39.1241 58.7367 43.7139 58.7445C44.8493 58.7461 45.9627 58.6318 47.0761 58.4063C53.4088 57.1238 58.2539 51.2185 58.2555 44.7526C58.2571 35.4743 58.2555 26.1975 58.2586 16.9191C58.2586 15.942 58.1913 14.9758 58.0347 14.008C57.0043 7.65332 51.4592 2.35252 44.4562 2.26952C35.1011 2.15991 25.7445 2.24134 16.3894 2.23507C15.431 2.23507 14.4836 2.29771 13.5362 2.45587C7.10636 3.52856 1.84158 9.0987 1.77424 16.1487C1.68341 25.7183 1.75232 35.2895 1.75388 44.8607C1.75388 45.7016 1.85567 46.5394 2.03419 47.3537C3.53752 54.2064 9.20632 58.7414 16.2328 58.7414C20.8039 58.7414 25.3734 58.7414 29.9444 58.7414Z" fill="#1CD6A9"/>
<path d="M29.7877 12.0176C34.4559 12.0176 39.124 12.0239 43.7922 12.0145C46.0456 12.0098 47.7838 13.2767 48.3319 15.3986C48.4431 15.8261 48.4713 16.2849 48.4713 16.7296C48.4791 25.8905 48.4791 35.0514 48.4744 44.2123C48.4744 46.4266 47.4033 48.0208 45.4991 48.7082C44.9009 48.9243 44.2792 48.965 43.6559 48.965C34.5342 48.965 25.4124 48.9619 16.2891 48.9541C13.8994 48.9525 12.2223 47.706 11.6758 45.5231C11.5818 45.1504 11.5614 44.751 11.5599 44.3627C11.552 40.4368 11.552 36.5109 11.5552 32.5835C11.5552 31.7958 11.7854 31.456 12.3131 31.4043C12.8267 31.3526 13.1791 31.6 13.2636 32.1293C13.3185 32.4723 13.3122 32.8278 13.3122 33.1785C13.3122 36.8695 13.3075 40.5621 13.3091 44.2531C13.3091 46.1432 14.3363 47.2096 16.2327 47.2112C25.3748 47.2174 34.5154 47.2065 43.6575 47.2065C44.8789 47.2065 45.8765 46.8463 46.4527 45.675C46.6673 45.238 46.7033 44.7777 46.7033 44.3094C46.7096 35.089 46.7143 25.8702 46.7111 16.6498C46.7111 14.8583 45.6666 13.8028 43.8783 13.7997C34.5812 13.7887 25.2824 13.7856 15.9853 13.7903C14.3285 13.7903 13.3059 14.935 13.3059 16.7343C13.3059 20.6023 13.3059 24.4686 13.3028 28.3366C13.3028 28.5495 13.2981 28.7703 13.2402 28.9724C13.1258 29.3764 12.8314 29.5768 12.4133 29.58C11.9843 29.5831 11.718 29.3529 11.6069 28.9536C11.5614 28.7876 11.5567 28.6059 11.5567 28.4321C11.5552 24.525 11.5505 20.6195 11.5599 16.7124C11.5661 14.3697 12.7986 12.7161 14.9126 12.1586C15.3151 12.0521 15.7238 12.0474 16.1309 12.0474C20.6816 12.0427 25.2339 12.0443 29.7846 12.0443C29.7846 12.0333 29.7846 12.0239 29.7846 12.0129L29.7877 12.0176Z" fill="#1CD6A9"/>
<path d="M37.9107 41.057C37.9044 41.5221 37.5239 41.9042 37.0588 41.912C36.5639 41.9214 36.1803 41.5299 36.1881 41.0257C36.1959 40.5465 36.5592 40.18 37.0306 40.1753C37.527 40.1706 37.9169 40.5606 37.9107 41.057Z" fill="#1CD6A9"/>
<path d="M40.5383 34.8573C40.0451 34.851 39.71 34.5096 39.7037 34.0085C39.6974 33.509 40.0936 33.1175 40.5853 33.1331C41.0426 33.1488 41.4247 33.5372 41.4356 33.9991C41.4466 34.4846 41.0504 34.8651 40.5383 34.8573Z" fill="#1CD6A9"/>
<path d="M41.4357 44.5898C41.4185 45.0705 40.9894 45.4526 40.4993 45.4198C40.0216 45.3884 39.6865 45.011 39.7022 44.524C39.7178 44.0307 40.0686 43.6972 40.5635 43.7035C41.0693 43.7097 41.4545 44.1012 41.4373 44.5898H41.4357Z" fill="#1CD6A9"/>
<path d="M41.4401 41.0741C41.4292 41.5471 40.9938 41.9307 40.499 41.9057C40.0245 41.8806 39.6831 41.4969 39.7019 41.0084C39.7191 40.5245 40.0934 40.1612 40.5648 40.1674C41.0439 40.1737 41.4511 40.5965 41.4401 41.0741Z" fill="#1CD6A9"/>
<path d="M41.4356 30.5133C41.4324 30.9878 41.0018 31.3871 40.5148 31.3699C40.0497 31.3527 39.6989 30.9674 39.7052 30.482C39.7114 29.9825 40.0528 29.6395 40.543 29.6364C41.0284 29.6332 41.4387 30.0373 41.4356 30.5149V30.5133Z" fill="#1CD6A9"/>
<path d="M33.5256 40.1722C34.0205 40.1722 34.4151 40.5809 34.3979 41.0758C34.3822 41.544 33.9923 41.9073 33.51 41.9042C33.0151 41.901 32.6675 41.5064 32.6831 40.9662C32.6957 40.5167 33.0637 40.1707 33.5256 40.1707V40.1722Z" fill="#1CD6A9"/>
<path d="M41.4371 26.9789C41.4512 27.4221 41.0534 27.8214 40.5805 27.8402C40.0778 27.859 39.7224 27.4926 39.713 26.9492C39.7067 26.5029 40.0622 26.1224 40.5085 26.102C40.9532 26.0816 41.4214 26.5232 41.4371 26.9805V26.9789Z" fill="#1CD6A9"/>
<path d="M26.4882 41.8854C25.9683 41.8775 25.627 41.508 25.6458 40.9771C25.663 40.5246 26.02 40.18 26.4789 40.1738C26.9737 40.1675 27.3699 40.5668 27.3636 41.0617C27.3574 41.5315 26.9721 41.8932 26.4882 41.8854Z" fill="#1CD6A9"/>
<path d="M41.4337 37.5712C41.4165 38.0316 41.0062 38.3964 40.5333 38.3745C40.04 38.351 39.6939 37.9877 39.7033 37.5054C39.7127 37.0027 40.1136 36.6363 40.621 36.6692C41.0798 36.6989 41.4525 37.1123 41.4353 37.5727L41.4337 37.5712Z" fill="#1CD6A9"/>
<path d="M27.3592 44.5318C27.3748 44.9938 27.0006 45.3946 26.5308 45.4197C26.05 45.4463 25.6679 45.0971 25.6444 44.6085C25.6194 44.1012 25.9388 43.7316 26.4243 43.7065C26.9411 43.6783 27.342 44.0322 27.3592 44.5318Z" fill="#1CD6A9"/>
<path d="M37.9075 44.571C37.9075 45.0392 37.5192 45.4213 37.0447 45.4213C36.5639 45.4213 36.1959 45.0564 36.1881 44.5726C36.1803 44.0558 36.5514 43.6925 37.0713 43.7066C37.563 43.7191 37.9075 44.0761 37.906 44.571H37.9075Z" fill="#1CD6A9"/>
<path d="M33.5087 45.4213C33.0358 45.4213 32.6787 45.047 32.6787 44.5537C32.6787 44.0526 33.017 43.7081 33.5134 43.705C34.0317 43.7018 34.4075 44.0777 34.3903 44.5835C34.3747 45.0439 33.9785 45.4213 33.5102 45.4197L33.5087 45.4213Z" fill="#1CD6A9"/>
<path d="M44.9246 41.0663C44.9167 41.5455 44.5472 41.901 44.0617 41.8994C43.5857 41.8963 43.2192 41.5298 43.213 41.0491C43.2067 40.5746 43.5794 40.1847 44.0429 40.1784C44.5315 40.1722 44.9324 40.5762 44.9246 41.0663Z" fill="#1CD6A9"/>
<path d="M19.46 41.9042C18.9855 41.9089 18.6175 41.5393 18.6128 41.0523C18.6081 40.559 18.9558 40.1926 19.4381 40.1816C19.9345 40.1707 20.3323 40.5622 20.3276 41.0601C20.3229 41.5221 19.9345 41.8995 19.4585 41.9042H19.46Z" fill="#1CD6A9"/>
<path d="M19.465 29.6458C19.9551 29.6489 20.3122 29.9981 20.3216 30.4804C20.331 30.9643 19.916 31.3699 19.429 31.3558C18.9545 31.3417 18.61 30.969 18.6178 30.4757C18.6256 29.9778 18.9686 29.6426 19.4666 29.6458H19.465Z" fill="#1CD6A9"/>
<path d="M37.0599 31.3606C36.5698 31.3574 36.1861 30.955 36.194 30.4554C36.2018 29.9794 36.5745 29.6302 37.0631 29.6411C37.536 29.6521 37.8993 30.0217 37.9087 30.5008C37.9181 30.9487 37.5078 31.3637 37.0584 31.3606H37.0599Z" fill="#1CD6A9"/>
<path d="M37.0635 33.1488C37.5474 33.1597 37.9013 33.5246 37.9013 34.0132C37.9013 34.5159 37.5035 34.8901 36.9946 34.8635C36.5154 34.84 36.1709 34.4595 36.1865 33.9709C36.2022 33.498 36.5874 33.1363 37.0635 33.1472V33.1488Z" fill="#1CD6A9"/>
<path d="M20.3233 44.5898C20.3076 45.0502 19.9098 45.4244 19.4401 45.4182C18.964 45.4119 18.6101 45.0408 18.6148 44.5522C18.6195 44.0292 18.9844 43.6847 19.509 43.7113C19.9881 43.7348 20.3389 44.1137 20.3233 44.5898Z" fill="#1CD6A9"/>
<path d="M23.8308 41.057C23.8246 41.5377 23.4566 41.8995 22.9758 41.8995C22.4935 41.8995 22.1333 41.5408 22.1271 41.0554C22.1192 40.5449 22.4982 40.1722 23.0071 40.1879C23.491 40.2019 23.8387 40.5699 23.8324 41.057H23.8308Z" fill="#1CD6A9"/>
<path d="M19.4856 26.1223C19.96 26.1333 20.3265 26.5107 20.3265 26.9836C20.3265 27.4659 19.9037 27.8621 19.4119 27.8402C18.9437 27.8198 18.5976 27.4283 18.6149 26.9413C18.6337 26.4527 18.9954 26.1114 19.484 26.1223H19.4856Z" fill="#1CD6A9"/>
<path d="M30.0007 43.7066C30.4986 43.7097 30.8917 44.1153 30.8698 44.6039C30.851 45.0502 30.5018 45.354 30.0022 45.3587C29.4776 45.3649 29.1472 45.0486 29.1519 44.5428C29.1566 44.0495 29.5074 43.7019 30.0007 43.7066Z" fill="#1CD6A9"/>
<path d="M23.834 44.571C23.834 45.0424 23.4535 45.4167 22.9775 45.4167C22.4983 45.4167 22.1318 45.0534 22.1256 44.5726C22.1193 44.0558 22.4873 43.6957 23.0041 43.7098C23.4974 43.7238 23.834 44.0746 23.8325 44.571H23.834Z" fill="#1CD6A9"/>
<path d="M19.4822 24.3183C19.0014 24.3324 18.6272 23.9707 18.6193 23.4837C18.6099 22.981 18.9482 22.6255 19.4399 22.6177C19.9363 22.6099 20.2996 22.9528 20.3137 23.4414C20.3278 23.9143 19.9582 24.3042 19.4822 24.3183Z" fill="#1CD6A9"/>
<path d="M23.8293 26.9899C23.8214 27.466 23.4503 27.834 22.9758 27.8355C22.4763 27.8371 22.1098 27.4472 22.1286 26.9335C22.1474 26.4528 22.5201 26.1067 23.0024 26.1255C23.4863 26.1443 23.8371 26.5107 23.8293 26.9899Z" fill="#1CD6A9"/>
<path d="M37.0381 36.6738C37.5643 36.6707 37.9182 37.0309 37.9057 37.5539C37.8947 37.9987 37.5157 38.387 37.0945 38.387C36.6044 38.387 36.1878 37.983 36.1909 37.5101C36.1925 37.0293 36.5511 36.677 37.0397 36.6738H37.0381Z" fill="#1CD6A9"/>
<path d="M19.4868 33.1535C19.9676 33.1661 20.3246 33.5842 20.2949 34.0978C20.2698 34.5347 19.8439 34.8683 19.349 34.8416C18.9043 34.8182 18.5958 34.4517 18.6146 33.9678C18.6334 33.4855 19.0014 33.141 19.4868 33.1535Z" fill="#1CD6A9"/>
<path d="M23.8295 34.0007C23.8342 34.4767 23.4709 34.851 22.9964 34.8588C22.4859 34.8682 22.1148 34.4955 22.1257 33.9835C22.1351 33.5027 22.5031 33.1488 22.9839 33.1566C23.4725 33.1629 23.8248 33.5168 23.8295 34.0007Z" fill="#1CD6A9"/>
<path d="M19.4664 38.387C18.995 38.398 18.6255 38.0331 18.6145 37.5461C18.6036 37.0481 18.9371 36.6911 19.4257 36.677C19.9174 36.6629 20.2494 36.9698 20.2525 37.4396C20.2572 38.0253 19.9675 38.3745 19.4648 38.387H19.4664Z" fill="#1CD6A9"/>
<path d="M23.8184 19.9696C23.8074 20.4582 23.4363 20.8106 22.9493 20.7965C22.4717 20.7824 22.1162 20.4003 22.1303 19.9164C22.1444 19.4325 22.5186 19.0786 23.0025 19.0927C23.4927 19.1068 23.8294 19.4685 23.82 19.9696H23.8184Z" fill="#1CD6A9"/>
<path d="M22.9431 22.6162C23.4395 22.6037 23.8013 22.9403 23.8216 23.4305C23.842 23.9112 23.4834 24.3027 23.0089 24.3168C22.5297 24.3325 22.1492 23.9754 22.132 23.4931C22.1147 23.0045 22.4639 22.6271 22.9447 22.6162H22.9431Z" fill="#1CD6A9"/>
<path d="M40.5335 20.8011C40.0528 20.7964 39.7286 20.4096 39.738 19.8506C39.7443 19.4121 40.1295 19.0629 40.5836 19.0848C40.9266 19.1005 41.4183 19.6298 41.4261 19.9915C41.4355 20.419 41.0096 20.8058 40.5335 20.8011Z" fill="#1CD6A9"/>
<path d="M23.0165 31.3479C22.5357 31.3636 22.1521 31.0081 22.1286 30.5274C22.1051 30.0372 22.4512 29.6583 22.935 29.6426C23.4174 29.6269 23.8042 29.9761 23.8339 30.4522C23.8621 30.911 23.4769 31.3323 23.0149 31.3479H23.0165Z" fill="#1CD6A9"/>
<path d="M20.306 19.9901C20.3107 20.4144 19.9302 20.7824 19.4745 20.7934C18.9922 20.8044 18.6273 20.4504 18.6226 19.9634C18.6179 19.4748 18.964 19.1053 19.4416 19.0912C19.9208 19.0771 20.2998 19.4702 20.306 19.9901Z" fill="#1CD6A9"/>
<path d="M37.0476 20.7918C36.5528 20.7871 36.2192 20.4348 36.2349 19.9306C36.249 19.4749 36.6593 19.0802 37.1024 19.0975C37.5503 19.1131 37.8854 19.4733 37.887 19.94C37.8886 20.4191 37.5174 20.795 37.0461 20.7918H37.0476Z" fill="#1CD6A9"/>
<path d="M22.9149 15.6022C23.3393 15.5975 23.8247 16.0782 23.8122 16.4916C23.7997 16.9285 23.4238 17.2793 22.9681 17.2793C22.4811 17.2793 22.1382 16.9317 22.1319 16.429C22.1257 15.9529 22.4545 15.6053 22.9133 15.6006L22.9149 15.6022Z" fill="#1CD6A9"/>
<path d="M30.8669 41.071C30.8559 41.5439 30.4801 41.9057 29.9993 41.8994C29.4841 41.8931 29.1506 41.5236 29.1756 40.9864C29.1976 40.5151 29.5374 40.1753 29.9884 40.1706C30.4582 40.1659 30.8778 40.5949 30.8669 41.0694V41.071ZM29.5671 40.9363C29.9336 41.0256 30.1277 41.2448 30.394 41.0882C30.4832 41.035 30.4864 40.894 30.3955 40.8377C30.1685 40.6952 29.9336 40.6952 29.5671 40.9379V40.9363Z" fill="#1CD6A9"/>
<path d="M15.9448 43.7144C16.4177 43.7238 16.7982 44.1105 16.7935 44.5741C16.7888 45.0078 16.4412 45.379 16.0325 45.3821C15.4797 45.3884 15.1023 45.0533 15.0991 44.5553C15.096 44.062 15.4562 43.7034 15.9432 43.7144H15.9448ZM15.7349 45.0329C15.9119 45.0141 16.0466 44.9342 16.0497 44.7495C16.0528 44.5772 15.951 44.4378 15.7678 44.4425C15.5893 44.4472 15.4875 44.5772 15.4906 44.7573C15.4938 44.9092 15.5752 45.0125 15.7349 45.0329Z" fill="#1CD6A9"/>
<path d="M16.795 41.057C16.7903 41.5377 16.4176 41.901 15.9306 41.8963C15.4436 41.8916 15.0897 41.5283 15.0928 41.0382C15.0975 40.5543 15.4733 40.18 15.9447 40.1879C16.4019 40.1957 16.7981 40.6013 16.7934 41.0585L16.795 41.057ZM15.9368 41.201C16.1201 41.2104 16.3941 41.2997 16.4301 40.9442C16.4458 40.7908 16.3315 40.6514 16.1811 40.7078C15.9619 40.7923 15.619 40.736 15.5579 41.0335C15.5125 41.2606 15.7442 41.2136 15.9353 41.1995L15.9368 41.201Z" fill="#1CD6A9"/>
<path d="M32.7582 37.366C32.7582 37.1279 32.9117 36.8273 33.2953 36.7145C33.632 36.6159 33.9656 36.6675 34.1723 36.9807C34.2615 37.1154 34.5168 37.3299 34.1472 37.4818C34.0971 37.5022 34.0423 37.6275 34.0611 37.676C34.3195 38.3447 33.8152 38.3525 33.4285 38.3463C32.9305 38.3369 32.7426 37.9861 32.7582 37.366ZM33.6258 37.4255C33.6164 37.283 33.5882 37.1373 33.4175 37.1232C33.2311 37.1076 33.1247 37.2282 33.1247 37.4082C33.1247 37.5774 33.2061 37.7199 33.3987 37.7167C33.571 37.7136 33.6007 37.5648 33.6258 37.4255Z" fill="#1CD6A9"/>
<path d="M26.5508 20.7683C25.9933 20.7746 25.6551 20.3126 25.7099 19.7363C25.7459 19.3605 26.1531 19.0473 26.5477 19.0943C26.6824 19.1115 26.8515 19.1272 26.8718 19.2869C26.8953 19.4654 26.7325 19.4858 26.5931 19.5108C26.4287 19.539 26.2658 19.6111 26.3206 19.8068C26.3754 20.0041 26.5508 20.0464 26.7466 19.9978C26.9329 19.9524 27.1866 19.741 27.2774 20.048C27.3542 20.3048 27.1522 20.5271 26.9126 20.6493C26.7779 20.7182 26.6213 20.7448 26.5508 20.7667V20.7683Z" fill="#1CD6A9"/>
<path d="M33.6073 34.6459C33.3771 34.6428 32.6755 33.96 32.7241 33.7549C32.8212 33.3399 33.1265 33.1457 33.5321 33.1488C33.7999 33.1504 34.1256 33.1958 34.1507 33.5388C34.2039 34.2388 33.9784 34.6506 33.6073 34.6459Z" fill="#1CD6A9"/>
<path d="M23.5709 36.9729C23.2546 37.1922 22.6689 37.0825 22.8365 37.5539C22.9837 37.9657 23.4175 37.7481 23.7291 37.5445C23.8622 38.1975 23.2593 38.232 23.0573 38.1975C22.7691 38.149 22.2884 38.2555 22.1662 37.781C22.0629 37.3832 22.1522 37.023 22.5076 36.8069C22.8694 36.5877 23.2358 36.6049 23.5709 36.9714V36.9729Z" fill="#1CD6A9"/>
<path d="M36.4402 26.531C36.4199 26.8724 36.4606 27.1621 36.8677 27.1918C37.076 27.2075 37.3501 27.2592 37.4331 27.0102C37.5771 26.5733 37.0854 26.5263 36.8349 26.2037C37.3046 26.1051 37.6084 26.2397 37.7964 26.5874C38.0062 26.9773 37.9263 27.3625 37.5881 27.6413C37.2749 27.8997 36.8818 27.9388 36.5639 27.6742C36.1881 27.3641 36.2288 26.9507 36.4402 26.531Z" fill="#1CD6A9"/>
<path d="M41.1659 23.0186C40.8167 23.0625 40.5035 22.5739 40.2451 23.0155C40.1198 23.2285 40.2921 23.4414 40.4612 23.573C40.776 23.8173 41.0641 23.6982 41.3335 23.4367C41.382 23.9331 41.169 24.2228 40.6758 24.2886C40.2326 24.3481 39.8865 24.179 39.7644 23.7421C39.6313 23.2692 39.8066 22.898 40.2811 22.7039C40.6476 22.5535 40.942 22.6115 41.1643 23.0202L41.1659 23.0186Z" fill="#1CD6A9"/>
<path d="M19.4728 15.5802C19.6294 15.61 19.9112 15.5567 19.9238 15.7995C19.9394 16.0986 19.6763 15.9263 19.5307 15.9326C19.3381 15.942 19.2363 16.0453 19.2551 16.227C19.2786 16.454 19.2927 16.7234 19.6168 16.7234C19.7938 16.7234 20.0099 16.6608 20.0318 16.8972C20.0553 17.1446 19.8063 17.1807 19.6262 17.2276C19.3005 17.3138 19.0077 17.2433 18.7931 16.9677C18.5708 16.6811 18.5535 16.3491 18.6992 16.0344C18.8385 15.7321 19.1016 15.5724 19.4728 15.5787V15.5802Z" fill="#1CD6A9"/>
<path d="M15.1835 30.7326C15.0332 30.2284 15.1929 29.8885 15.6001 29.7163C15.8585 29.6067 16.1513 29.5613 16.3784 29.8792C16.6226 30.2205 16.9891 30.5024 16.632 30.9753C16.5068 31.1413 16.3408 31.2932 16.1513 31.2337C15.9477 31.1695 16.1121 30.9675 16.109 30.8266C16.1059 30.5729 16.1325 30.2628 15.8491 30.1657C15.4059 30.0154 15.4529 30.5431 15.1835 30.7342V30.7326Z" fill="#1CD6A9"/>
<path d="M40.5067 17.259C40.109 17.2433 39.8333 17.057 39.7472 16.6623C39.7018 16.4588 39.6392 16.1847 39.8631 16.0814C40.0902 15.9764 40.0933 16.2802 40.1982 16.3977C40.4754 16.7109 40.7087 16.7046 40.9327 16.3429C41.0094 16.2192 41.0971 16.025 41.285 16.1362C41.4291 16.2207 41.4165 16.4055 41.3836 16.5653C41.285 17.0413 40.9655 17.2402 40.5067 17.2605V17.259Z" fill="#1CD6A9"/>
<path d="M37.0603 24.3183C36.7597 24.2886 36.4653 24.2322 36.3509 23.9049C36.2664 23.6637 36.3102 23.4273 36.6359 23.5275C36.9382 23.6199 37.123 23.5197 37.2983 23.3114C37.4048 23.1846 37.527 23.0828 37.7008 23.1611C37.8997 23.2519 37.8919 23.4398 37.8731 23.6152C37.8323 24.0051 37.4722 24.3121 37.0603 24.3183Z" fill="#1CD6A9"/>
<path d="M27.0037 33.4855C26.9254 33.6343 26.8503 33.769 26.9333 33.9334C27.0069 34.079 27.1854 34.2591 26.9646 34.3828C26.7125 34.5238 26.5982 34.2591 26.4682 34.1088C26.3727 33.9992 26.3648 33.8191 26.1769 33.7768C26.0407 33.7455 25.7369 33.877 25.8277 33.5717C25.9357 33.2068 26.2646 33.105 26.6216 33.1614C26.8049 33.1911 27.0163 33.224 27.0037 33.4855Z" fill="#1CD6A9"/>
<path d="M15.9306 27.6961C16.5585 27.2247 16.7245 26.8771 16.4583 26.5952C16.2093 26.329 15.6785 26.4433 15.2322 26.8567C15.1993 26.4355 15.4733 26.1505 15.9196 26.1442C16.3957 26.138 16.8185 26.5874 16.7762 27.0556C16.7339 27.5191 16.4066 27.7666 15.9306 27.6977V27.6961Z" fill="#1CD6A9"/>
<path d="M43.6484 22.8025C43.5576 23.219 43.3806 23.598 43.6781 23.9425C44.0179 24.3356 44.3358 23.7906 44.6944 23.8955C44.317 24.3152 43.7643 24.3622 43.4323 24.0286C43.1128 23.7076 43.1817 23.1955 43.6484 22.8041V22.8025Z" fill="#1CD6A9"/>
<path d="M27.0911 36.9854C26.9142 37.0904 26.8124 37.0121 26.7043 36.9839C26.258 36.8617 25.9777 36.9854 25.9652 37.4928C25.9621 37.6103 25.9761 37.77 25.8305 37.7669C25.616 37.7622 25.7099 37.5633 25.7068 37.4521C25.6943 37.0951 25.9119 36.8617 26.2095 36.7427C26.5258 36.6143 26.8515 36.619 27.0911 36.987V36.9854Z" fill="#1CD6A9"/>
<path d="M44.251 19.1694C43.3239 19.6314 43.2096 19.9602 43.7843 20.6837C43.277 20.4081 43.1626 20.0213 43.3114 19.6392C43.4476 19.2884 43.7577 19.0347 44.251 19.171V19.1694Z" fill="#1CD6A9"/>
<path d="M27.0241 27.4189C26.949 27.6852 26.783 27.7118 26.6452 27.7572C26.4604 27.8151 26.2662 27.8402 26.0955 27.7102C26.0595 27.6836 26.0282 27.5865 26.0454 27.5661C26.1832 27.4049 26.3633 27.5051 26.5277 27.4972C26.6733 27.4894 26.819 27.4534 27.0226 27.4189H27.0241Z" fill="#1CD6A9"/>
<path d="M16.4002 33.3697C15.8834 33.4213 15.4903 33.3822 15.2617 33.7643C15.4888 33.1849 15.7268 33.0815 16.4002 33.3697Z" fill="#1CD6A9"/>
</g>
<defs>
<clipPath id="clip0_120_913">
<rect width="60.0188" height="60" fill="white" transform="translate(0 0.5)"/>
</clipPath>
</defs>
</svg>
